<svg width="24" height="24" viewBox="0 0 24 24" fill="none" xmlns="http://www.w3.org/2000/svg"><rect width="24" height="24" fill="none" rx="0" ry="0"></rect><path fill-rule="evenodd" clip-rule="evenodd" d="M10.9998 18.1016C10.9998 18.9316 10.3298 19.6016 9.49976 19.6016C8.66976 19.6016 7.99976 18.9316 7.99976 18.1016C7.99976 17.2716 8.66976 16.6016 9.49976 16.6016C10.3298 16.6016 10.9998 17.2716 10.9998 18.1016ZM18.9998 18.1016C18.9998 18.9316 18.3298 19.6016 17.4998 19.6016C16.6698 19.6016 15.9998 18.9316 15.9998 18.1016C15.9998 17.2716 16.6698 16.6016 17.4998 16.6016C18.3298 16.6016 18.9998 17.2716 18.9998 18.1016Z" fill="#ffffff"></path><path fill-rule="evenodd" clip-rule="evenodd" d="M20.9099 4.88189C20.9799 4.55189 21.2999 4.34189 21.6199 4.41189C21.9399 4.48189 22.1499 4.79189 22.0899 5.12189L20.0899 15.1219C20.0299 15.4019 19.7899 15.6019 19.4999 15.6019H7.49989C7.20989 15.6019 6.96989 15.4019 6.90989 15.1219L5.00588 5.60186H2.4999C2.1699 5.60186 1.8999 5.33186 1.8999 5.00186C1.8999 4.67186 2.1699 4.40186 2.4999 4.40186H5.44233C5.57912 4.38768 5.71291 4.42458 5.82399 4.49756C5.90411 4.54934 5.97126 4.61967 6.01925 4.70233C6.05157 4.7571 6.0758 4.81747 6.08989 4.88189L6.19366 5.40186H20.8061L20.9099 4.88189ZM18.4999 7.00183H8.49988C8.21988 7.00183 7.99988 7.22183 7.99988 7.50183C7.99988 7.78183 8.21988 8.00183 8.49988 8.00183H18.4999C18.7799 8.00183 18.9999 7.78183 18.9999 7.50183C18.9999 7.22183 18.7799 7.00183 18.4999 7.00183ZM8.99988 9.80188H17.9999C18.2799 9.80188 18.4999 10.0219 18.4999 10.3019C18.4999 10.5819 18.2799 10.8019 17.9999 10.8019H8.99988C8.71988 10.8019 8.49988 10.5819 8.49988 10.3019C8.49988 10.0219 8.71988 9.80188 8.99988 9.80188ZM9.49988 12.6018H17.4999C17.7799 12.6018 17.9999 12.8218 17.9999 13.1018C17.9999 13.3818 17.7799 13.6018 17.4999 13.6018H9.49988C9.21988 13.6018 8.99988 13.3818 8.99988 13.1018C8.99988 12.8218 9.21988 12.6018 9.49988 12.6018Z" fill="#ffffff"></path><path fill-rule="evenodd" clip-rule="evenodd" d="M5.4999 4.40186H2.4999C2.1699 4.40186 1.8999 4.67186 1.8999 5.00186C1.8999 5.33186 2.1699 5.60186 2.4999 5.60186H5.4999C5.8299 5.60186 6.0999 5.33186 6.0999 5.00186C6.0999 4.67186 5.8299 4.40186 5.4999 4.40186Z" fill="black" fill-opacity="0.3"></path></svg>