<?xml version="1.0" encoding="utf-8"?>
<!-- Generator: Adobe Illustrator 24.0.2, SVG Export Plug-In . SVG Version: 6.00 Build 0)  -->
<svg version="1.1" id="Layer_1" xmlns="http://www.w3.org/2000/svg" xmlns:xlink="http://www.w3.org/1999/xlink" x="0px" y="0px"
	 viewBox="0 0 100 125" style="enable-background:new 0 0 100 125;" xml:space="preserve">
<title>35</title>
<path d="M93.2,17.4c-2.3-2.3-6.1-2.3-8.5,0L50,52.2L15.2,17.4c-2.3-2.3-6.1-2.3-8.5,0c-2.3,2.3-2.3,6.1,0,8.5l34.8,34.8L6.8,95.4
	c-2.3,2.3-2.3,6.1,0,8.5c2.3,2.3,6.1,2.3,8.5,0L50,69.2l34.8,34.8c2.3,2.3,6.1,2.3,8.5,0c2.3-2.3,2.3-6.1,0-8.5L58.5,60.7l34.8-34.8
	C95.6,23.6,95.6,19.8,93.2,17.4C93.2,17.4,93.2,17.4,93.2,17.4z"/>
</svg>
